<?xml version="1.0" standalone="no"?>
<!DOCTYPE svg PUBLIC "-//W3C//DTD SVG 1.1//EN" "http://www.w3.org/Graphics/SVG/1.1/DTD/svg11.dtd" >
<svg>
<metadata>
Created by FontForge 20090914 at Fri Oct  2 10:49:54 2015
 By www-data
Copyright (c) 2007 by ALS. All rights reserved.
</metadata>
<defs>
<font id="ALSRubl" horiz-adv-x="500" >
  <font-face 
    font-family="ALS Rubl"
    font-weight="400"
    font-stretch="normal"
    units-per-em="1000"
    panose-1="2 0 5 0 0 0 0 2 0 4"
    ascent="750"
    descent="-250"
    x-height="700"
    bbox="-61 -0.00195312 858.999 702"
    underline-thickness="50"
    underline-position="-50"
    unicode-range="U+0020-U+0073"
  />
<missing-glyph 
 />
    <glyph glyph-name=".notdef" 
 />
    <glyph glyph-name="space" unicode=" " 
 />
    <glyph glyph-name="space" unicode="&#xa0;" 
 />
    <glyph glyph-name="a" unicode="a" horiz-adv-x="856" 
d="M158 366l75 0.000976562v334h266c46 0 81 -2 105 -6c34.667 -6 63.667 -17 87 -33s41.833 -38.333 55.5 -67s20.5 -60.334 20.5 -95.001c0 -60 -18.667 -110.833 -56 -152.5s-105.333 -62.5 -204 -62.5h-182v-62h387v-80h-387v-142h-92v142h-75v80h75v62h-75v82z
M325 368.001l183.001 0.000976562c59.333 0 101.666 11.167 126.999 33.5s38 53.833 38 94.5c0 29.333 -7.5 54.166 -22.5 74.499s-34.5 33.833 -58.5 40.5c-16 4.66699 -44.667 7 -86 7h-181v-250z" />
    <glyph glyph-name="b" unicode="b" horiz-adv-x="587" 
d="M125 363h63.002l58 337h239c41.333 0 72.166 -5.66699 92.499 -17s37.5 -31 51.5 -59s21 -60 21 -96c0 -48 -11.333 -93 -34 -135s-52.334 -70.5 -89.001 -85.5s-81 -22.833 -133 -23.5h-109h-34l-11 -61h332l-13 -80h-332l-25 -143h-77l25 143h-62l13 80h63l10 61h-62z
M264.002 363l21 -0.000976562h106c45.333 0 79.5 5.66699 102.5 17s42.167 30.333 57.5 57s23 56 23 88c0 24.667 -4 44.334 -12 59.001s-18.833 25 -32.5 31s-38.167 9 -73.5 9h-147z" />
    <glyph glyph-name="c" unicode="c" horiz-adv-x="861" 
d="M149 382l81 -0.00195312v318h227c86 0 142 -3.33301 168 -10c40.667 -10.667 74.5 -33.667 101.5 -69s40.5 -80.666 40.5 -135.999c0 -43.333 -7.83301 -79.666 -23.5 -108.999s-35.5 -52.333 -59.5 -69s-48.667 -27.667 -74 -33c-33.333 -6.66699 -82 -10 -146 -10h-92
v-60h365v-118h-365v-86h-142v86h-81v118h81v60h-81v118zM372 581.998l-0.000976562 -199.001h77c56 0 93.333 3.66699 112 11s33.334 18.833 44.001 34.5s16 33.834 16 54.501c0 25.333 -7.5 46.333 -22.5 63s-33.833 27 -56.5 31c-16.667 3.33301 -50.667 5 -102 5h-68z
" />
    <glyph glyph-name="d" unicode="d" horiz-adv-x="735" 
d="M152 383l88.001 -0.00390625l67 317h285c50 0 89.833 -6 119.5 -18s53 -31.833 70 -59.5s25.5 -60.5 25.5 -98.5c0 -35.333 -6.83301 -69.666 -20.5 -102.999s-30.5 -60.166 -50.5 -80.499s-41.333 -35.666 -64 -45.999s-53.334 -18.166 -92.001 -23.499
c-22.667 -3.33301 -65 -5 -127 -5h-93l-14 -65h364l-25 -116h-363l-18 -85h-144l18 85h-95l27 116h92l14 65h-91zM384.001 382.996h44.001c76.667 0 127.667 4.83301 153 14.5s45.333 25 60 46s22 43.833 22 68.5c0 17.333 -3.66699 31.333 -11 42s-17.833 18.5 -31.5 23.5
s-43.834 7.5 -90.501 7.5h-104z" />
    <glyph glyph-name="e" unicode="e" horiz-adv-x="696" 
d="M91 350l97 -0.00195312v251c0 11.333 -1.5 21.5 -4.5 30.5s-10.833 15.833 -23.5 20.5c-12 4.66699 -24.167 7.83398 -36.5 9.50098s-23.166 2.83398 -32.499 3.50098v35h320c65.333 0 118.333 -15.667 159 -47s61 -73 61 -125c0 -37.333 -7.33301 -70 -22 -98
s-34.667 -51 -60 -69c-24.667 -18.667 -51.834 -32.334 -81.501 -41.001s-61.5 -13 -95.5 -13h-78v-49h310v-42h-310v-121c0 -11.333 1.83301 -21.333 5.5 -30s11.5 -15.334 23.5 -20.001c6 -2.66699 16.5 -5 31.5 -7s28.5 -3 40.5 -3v-35h-300v35
c8 0.666992 19.5 1.83398 34.5 3.50098s25.167 3.83398 30.5 6.50098c10 4 17.167 10.167 21.5 18.5s6.5 18.833 6.5 31.5v121h-97v42h97v50h-97v42zM481 407.998c10.667 15.333 17.835 31.501 21.502 48.501s5.5 32.167 5.5 45.5c0 19.333 -2.16699 38.666 -6.5 57.999
s-11.833 36.333 -22.5 51c-12 15.333 -27.333 27.333 -46 36s-41.667 13 -69 13h-70v-310h50c35.333 0 64.166 5.5 86.499 16.5s39.166 24.833 50.499 41.5z" />
    <glyph glyph-name="f" unicode="f" horiz-adv-x="698" 
d="M52 349l97.001 -0.00585938l59 254c0 2.66699 0.333008 5.83398 1 9.50098s1 7.16699 1 10.5c0 6.66699 -1.33301 12.834 -4 18.501s-7.66699 10.167 -15 13.5c-10.667 4 -21.834 7 -33.501 9s-22.5 3 -32.5 3l8 33h311c56.667 0 102.667 -12.5 138 -37.5
s53 -59.5 53 -103.5c0 -39.333 -8.83301 -74.666 -26.5 -105.999s-40.167 -57.333 -67.5 -78c-29.333 -22.667 -61.833 -39.5 -97.5 -50.5s-73.167 -16.5 -112.5 -16.5h-86l-12 -52h314l-9 -41h-315l-28 -122c-0.666992 -3.33301 -1.16699 -6.66602 -1.5 -9.99902
s-0.5 -6 -0.5 -8c0 -7.33301 1.33301 -13.833 4 -19.5s7.66699 -10.167 15 -13.5c5.33301 -2 15.5 -4 30.5 -6s28.167 -3 39.5 -3l-7 -33h-300l7 33c8.66699 0 20.5 0.833008 35.5 2.5s25.833 3.83398 32.5 6.50098c12 4.66699 21 11.334 27 20.001s10.333 19 13 31l28 122
h-97l10 41h96l13 52h-98zM477.001 425.994c13.333 19.333 22.8311 39.8311 28.498 61.498s8.5 42.167 8.5 61.5c0 14.667 -2 28.834 -6 42.501s-11 25.834 -21 36.501s-22.667 19 -38 25s-34.666 9 -57.999 9h-64l-73 -313h56c38.667 0 71.834 6.5 99.501 19.5
s50.167 32.167 67.5 57.5z" />
    <glyph glyph-name="g" unicode="g" horiz-adv-x="762" 
d="M69 349h102.999v245c0 12 -2 22.167 -6 30.5s-12.667 15.166 -26 20.499c-9.33301 4 -21.666 7.5 -36.999 10.5l-34 6.5v38h387c90.667 0 158.167 -14.333 202.5 -43s66.5 -72.667 66.5 -132c0 -38.667 -8 -72.334 -24 -101.001s-38.333 -52 -67 -70
c-29.333 -18.667 -63 -32.167 -101 -40.5s-80.667 -12.5 -128 -12.5h-59v-53h352v-47h-352v-96c0 -12 2.33301 -22.333 7 -31s13 -15.667 25 -21c6.66699 -2.66699 17.667 -5.5 33 -8.5s28 -4.83301 38 -5.5v-39h-380v39c9.33301 0.666992 22 1.83398 38 3.50098
s27 3.83398 33 6.50098c12.667 5.33301 21.167 11.833 25.5 19.5s6.5 18.167 6.5 31.5v101h-103v47h103v53h-103v48zM533.999 501c0 52 -10.668 90.833 -32.001 116.5s-59.666 38.5 -114.999 38.5h-41v-307h21c54.667 0 96.167 12.333 124.5 37s42.5 63 42.5 115z" />
    <glyph glyph-name="h" unicode="h" horiz-adv-x="642" 
d="M24 346l103 -0.000976562l56 239c2 7.33301 3.33301 13.333 4 18s1 8 1 10c0 14 -7 24.833 -21 32.5s-37 13.834 -69 18.501l9 36h378c82 0 143 -12 183 -36s60 -61 60 -111c0 -40.667 -9.33301 -77 -28 -109s-45.334 -59 -80.001 -81
c-34.667 -20.667 -73.334 -36 -116.001 -46s-89.667 -15 -141 -15h-70l-11 -47h359l-10 -44h-359l-23 -99c-1.33301 -6 -2.5 -11.5 -3.5 -16.5s-1.5 -8.83301 -1.5 -11.5c0 -14.667 6.16699 -25.5 18.5 -32.5s35.833 -12.167 70.5 -15.5l-8 -36h-380l8 36
c8.66699 0.666992 21.167 2 37.5 4s28.5 4.33301 36.5 7c12.667 4 22.334 10.333 29.001 19s11.334 18.667 14.001 30l26 115h-103l10 44h104l10 46h-103zM532 550.999c0 36 -9.5 62.834 -28.5 80.501s-50.167 26.5 -93.5 26.5h-36l-72 -312h32c36 0 66.667 5.16699 92 15.5
s46 25.166 62 44.499c15.333 18 26.5 39.333 33.5 64s10.5 51.667 10.5 81z" />
    <glyph glyph-name="i" unicode="i" horiz-adv-x="702" 
d="M151 341l71 -0.000976562v359h176c41.333 0 76.5 -3.5 105.5 -10.5s54.833 -18.167 77.5 -33.5c26 -17.333 46.333 -39.833 61 -67.5s22 -60.834 22 -99.501c0 -30 -5.5 -58.667 -16.5 -86s-25.833 -50.666 -44.5 -69.999c-24 -23.333 -52.333 -41.166 -85 -53.499
s-74 -18.5 -124 -18.5h-79v-61h315v-80h-315v-120h-93v120h-71v80h71v62h-71v79zM567 486.999c0 24 -4.16797 44.833 -12.501 62.5s-20.833 32.167 -37.5 43.5c-15.333 10 -32.666 17 -51.999 21s-43.666 6 -72.999 6h-77v-280h64c37.333 0 67.5 3.16699 90.5 9.5
s42.5 17.166 58.5 32.499c13.333 14 23.166 29.333 29.499 46s9.5 36.334 9.5 59.001z" />
    <glyph glyph-name="j" unicode="j" horiz-adv-x="811" 
d="M154 361l71.998 -0.00195312v339h272c40.667 0 75.5 -3.66699 104.5 -11s55.5 -19 79.5 -35c26.667 -17.333 47.167 -40.666 61.5 -69.999s21.5 -64.333 21.5 -105c0 -32.667 -5.16699 -63.667 -15.5 -93s-25.166 -54 -44.499 -74c-12 -12 -25.167 -23.167 -39.5 -33.5
s-30.166 -19.166 -47.499 -26.499s-36 -13 -56 -17s-42.667 -6 -68 -6h-92v-48h333v-132h-333v-49h-176v49h-72v132h72v48h-72v132zM583.998 474.998c0 20 -4.66797 37.168 -14.001 51.501s-20.666 23.833 -33.999 28.5c-16.667 7.33301 -32.5 11.666 -47.5 12.999
s-35.5 2 -61.5 2h-25v-210h12c16.667 0 32.334 0.166992 47.001 0.5s27.667 1.5 39 3.5c9.33301 1.33301 19.166 4.33301 29.499 9s18.5 9.66699 24.5 15c12 11.333 20 23.333 24 36s6 29.667 6 51z" />
    <glyph glyph-name="k" unicode="k" horiz-adv-x="640" 
d="M34 347l100 -0.000976562v229c0 44.667 -4.66699 72.334 -14 83.001c-13.333 14.667 -33 22 -59 22h-26v19h256c63.333 0 113 -6.33301 149 -19s66.333 -34.5 91 -65.5s37 -67.167 37 -108.5c0 -57.333 -18.833 -104 -56.5 -140s-91.167 -54 -160.5 -54h-117v-43h302v-34
h-302v-112c0 -44 4.66699 -71.333 14 -82c13.333 -15.333 33.333 -23 60 -23h26v-19h-299v19h26c29.333 0 50.333 9.66699 63 29c6.66699 10.667 10 36 10 76v112h-100v34h100v43h-100v34zM234 346.999h83.999c36 0 67.167 13.833 93.5 41.5s39.5 63.5 39.5 107.5
c0 30.667 -6.16699 59 -18.5 85s-30 45.5 -53 58.5s-49.167 19.5 -78.5 19.5c-17.333 0 -39.666 -3.33301 -66.999 -10v-302z" />
    <glyph glyph-name="l" unicode="l" horiz-adv-x="612" 
d="M65 358l77.002 -0.00292969l53 183c13.333 47.333 20 79 20 95c0 12.667 -4.83301 22.834 -14.5 30.501s-31.167 12.5 -64.5 14.5l5 19h276c72.667 0 126.834 -15.667 162.501 -47s53.5 -69 53.5 -113c0 -36 -11.333 -70.667 -34 -104s-56.334 -60.333 -101.001 -81
s-93.334 -31 -146.001 -31h-128l-15 -52h336l-8 -36h-339l-25 -86c-12.667 -45.333 -19 -75 -19 -89c0 -11.333 4.66699 -20.666 14 -27.999s31.666 -12 66.999 -14l-6 -19h-278l6 19c36.667 0 62.167 6.33301 76.5 19s29.5 47.334 45.5 104.001l27 94h-70l9 36h71l15 52
h-75zM234.002 357.997h97.999c37.333 0 71.5 7.83301 102.5 23.5s55.167 39 72.5 70s26 63.5 26 97.5s-10.667 61.167 -32 81.5s-53.666 30.5 -96.999 30.5c-23.333 0 -52 -3 -86 -9z" />
    <glyph glyph-name="m" unicode="m" horiz-adv-x="701" 
d="M52 357l97.999 -0.000976562v220c0 38 -2.33301 61.833 -7 71.5s-12.834 17.5 -24.501 23.5s-33.5 9 -65.5 9v19h305c100 0 171.833 -17.833 215.5 -53.5s65.5 -80.5 65.5 -134.5c0 -45.333 -14 -84.166 -42 -116.499s-67 -54.5 -117 -66.5
c-33.333 -8 -89.666 -12 -168.999 -12v-45h307v-40h-307v-109c0 -38 2.33301 -61.833 7 -71.5s13 -17.5 25 -23.5s33.667 -9 65 -9v-19h-355v19c32 0 53.833 3 65.5 9s19.834 13.833 24.501 23.5s7 33.5 7 71.5v109h-98v40h98v45h-98v40zM310.999 659.999v-302.999h26
c42 -0.666992 74.333 11.5 97 36.5s34 63.833 34 116.5c0 51.333 -11.333 89.166 -34 113.499s-56.667 36.5 -102 36.5h-21z" />
    <glyph glyph-name="n" unicode="n" horiz-adv-x="584" 
d="M32 357l96.999 -0.000976562l62 214c10 29.333 15 50.333 15 63s-5.83301 23.5 -17.5 32.5s-32.5 13.833 -62.5 14.5l6 19h277c75.333 0 130 -9.66699 164 -29c52 -30.667 78 -76 78 -136c0 -58.667 -25.833 -110.167 -77.5 -154.5s-121.167 -66.5 -208.5 -66.5h-96
l-18 -61h307l-14 -43h-306l-24 -84c-8.66699 -27.333 -13 -46.666 -13 -57.999c0 -16 5.33301 -28 16 -36s34.334 -12.333 71.001 -13l-7 -19h-342l6 19c28.667 0.666992 49 3.66699 61 9s22.333 14 31 26c6 7.33301 14.333 31.333 25 72l24 84h-98l13 43h98l17 61h-98z
M279.999 356.999l55.999 0.000976562c48 0 85.5 21.667 112.5 65s40.5 88.666 40.5 135.999c0 31.333 -8.66699 56 -26 74s-41.666 27 -72.999 27c-6 0 -14.333 -0.333008 -25 -1z" />
    <glyph glyph-name="o" unicode="o" horiz-adv-x="716" 
d="M191 354h61v346h190c54.667 0 97 -4.5 127 -13.5s54.667 -24.833 74 -47.5c24.667 -30 37 -70.667 37 -122c0 -74.667 -25.333 -133.167 -76 -175.5s-121 -63.5 -211 -63.5h-43v-72h300v-75h-300v-131h-98v131h-61v75h61v71h-61v77zM350 354h39
c59.333 0 105.333 13.5 138 40.5s49 65.5 49 115.5c0 41.333 -13 71 -39 89s-68.333 27 -127 27h-60v-272z" />
    <glyph glyph-name="p" unicode="p" horiz-adv-x="785" 
d="M200 340h65.999v360h190c42 0 77.5 -3.5 106.5 -10.5s54.833 -18.167 77.5 -33.5c26.667 -18 47.334 -40.167 62.001 -66.5s22 -60.166 22 -101.499c0 -30.667 -5.5 -59.334 -16.5 -86.001s-26.167 -49.667 -45.5 -69c-24 -24 -52.5 -42 -85.5 -54s-74.5 -18 -124.5 -18
h-93v-66h325v-80h-325v-115h-93v115h-66v80h66v65h-66v80zM626.999 486c0 24 -4.33398 44.999 -13.001 62.999s-21.334 32.667 -38.001 44c-15.333 9.33301 -32.666 16.166 -51.999 20.499s-43.666 6.5 -72.999 6.5h-92v-280h78c38 0 68.667 3.5 92 10.5
s42.333 17.833 57 32.5c15.333 14.667 26 30.334 32 47.001s9 35.334 9 56.001z" />
    <glyph glyph-name="q" unicode="q" horiz-adv-x="631" 
d="M121 337h74l83 363h185c42.667 0 77.834 -3.83301 105.501 -11.5s50.5 -18.5 68.5 -32.5c18.667 -14 32.834 -31.167 42.501 -51.5s14.5 -44.5 14.5 -72.5c0 -38.667 -8.33301 -75 -25 -109s-40 -64 -70 -90c-28.667 -24 -60.834 -41.833 -96.501 -53.5
s-78.834 -17.5 -129.501 -17.5h-102l-17 -72h355l-16 -76h-356l-26 -114h-94l26 114h-73l17 76h74l16 72h-73zM595 516c0 16 -2.66992 30.833 -8.00293 44.5s-13.666 24.834 -24.999 33.501c-13.333 10 -29.166 17.333 -47.499 22s-42.166 7 -71.499 7h-88l-66 -286h83
c38 0 69.5 3.66699 94.5 11s46.5 18.333 64.5 33c21.333 18 37.333 38.167 48 60.5s16 47.166 16 74.499z" />
    <glyph glyph-name="r" unicode="r" horiz-adv-x="941" 
d="M190 361h88.998v341h298c44.667 0 82.334 -3.83301 113.001 -11.5s57.667 -19.167 81 -34.5c28.667 -18.667 50.5 -42.5 65.5 -71.5s22.5 -63.833 22.5 -104.5c0 -31.333 -5.5 -62 -16.5 -92s-26.833 -55 -47.5 -75c-28 -28 -59.167 -49 -93.5 -63
s-77.166 -21 -128.499 -21h-113v-43h362v-132h-362v-54h-181v54h-89v132h89v42h-89v133zM670.998 476c0 20 -5.33301 37.168 -16 51.501s-23 24.166 -37 29.499c-18.667 8 -37 12.333 -55 13s-42 1 -72 1h-31v-210h52c30.667 0 56 1.83301 76 5.5s36.667 11.167 50 22.5
c12 10 20.5 22 25.5 36s7.5 31 7.5 51z" />
    <glyph glyph-name="s" unicode="s" horiz-adv-x="806" 
d="M130 360h102l79 340h251c46 0 86 -3.16699 120 -9.5s63.333 -17.166 88 -32.499c24 -15.333 42.5 -35.333 55.5 -60s19.5 -55.334 19.5 -92.001c0 -83.333 -34.5 -150.5 -103.5 -201.5s-165.5 -76.5 -289.5 -76.5h-69l-10 -43h377l-29 -132h-379l-12 -53h-181l12 53h-102
l30 132h103l9 43h-102zM652 489c0 27.333 -9.83105 47.501 -29.498 60.501s-48.834 19.5 -87.501 19.5h-73l-49 -209h65c55.333 0 98.166 11.167 128.499 33.5s45.5 54.166 45.5 95.499z" />
    <glyph glyph-name=".null" horiz-adv-x="0" 
 />
    <glyph glyph-name="nonmarkingreturn" 
 />
  </font>
</defs>
</svg>
